<svg xmlns="http://www.w3.org/2000/svg"
width="500" height="500">
  <g>
    <path d="
    M             217.68  30
    L             282.32  30
    A 14 14 0 0 1 294.44  37
    L             326.76  93
    A 14 14 0 0 1 326.76 107
    L             294.44 163
    A 14 14 0 0 1 282.32 170
    L             217.68 170
    A 14 14 0 0 1 205.56 163
    L             173.24 107
    A 14 14 0 0 1 173.24  93
    L             205.56  37
    A 14 14 0 0 1 217.68  30
    Z">
      <animateTransform
        attributeName="transform"
        attributeType="XML"
        type="rotate"
        from="360 250 250"
        to="0 250 250"
        begin="-30s"
        dur="30s"
        repeatCount="indefinite"
      />
      <animate
        attributeName="fill"
        values="#ff9393;#ab93ff;#93d3ff;#93ff93;#fffb93;#ff9393;"
        begin="-30s"
        dur="30s"
        repeatCount="indefinite"
      />
    </path>
    <path d="
    M             217.68  30
    L             282.32  30
    A 14 14 0 0 1 294.44  37
    L             326.76  93
    A 14 14 0 0 1 326.76 107
    L             294.44 163
    A 14 14 0 0 1 282.32 170
    L             217.68 170
    A 14 14 0 0 1 205.56 163
    L             173.24 107
    A 14 14 0 0 1 173.24  93
    L             205.56  37
    A 14 14 0 0 1 217.68  30
    Z">
      <animateTransform
        attributeName="transform"
        attributeType="XML"
        type="rotate"
        from="360 250 250"
        to="0 250 250"
        begin="-25s"
        dur="30s"
        repeatCount="indefinite"
      />
      <animate
        attributeName="fill"
        values="#ff9393;#ab93ff;#93d3ff;#93ff93;#fffb93;#ff9393;"
        begin="-25s"
        dur="30s"
        repeatCount="indefinite"
      />
    </path>
    <path d="
    M             217.68  30
    L             282.32  30
    A 14 14 0 0 1 294.44  37
    L             326.76  93
    A 14 14 0 0 1 326.76 107
    L             294.44 163
    A 14 14 0 0 1 282.32 170
    L             217.68 170
    A 14 14 0 0 1 205.56 163
    L             173.24 107
    A 14 14 0 0 1 173.24  93
    L             205.56  37
    A 14 14 0 0 1 217.68  30
    Z">
      <animateTransform
        attributeName="transform"
        attributeType="XML"
        type="rotate"
        from="360 250 250"
        to="0 250 250"
        begin="-20s"
        dur="30s"
        repeatCount="indefinite"
      />
      <animate
        attributeName="fill"
        values="#ff9393;#ab93ff;#93d3ff;#93ff93;#fffb93;#ff9393;"
        begin="-20s"
        dur="30s"
        repeatCount="indefinite"
      />
    </path>
    <path d="
    M             217.68  30
    L             282.32  30
    A 14 14 0 0 1 294.44  37
    L             326.76  93
    A 14 14 0 0 1 326.76 107
    L             294.44 163
    A 14 14 0 0 1 282.32 170
    L             217.68 170
    A 14 14 0 0 1 205.56 163
    L             173.24 107
    A 14 14 0 0 1 173.24  93
    L             205.56  37
    A 14 14 0 0 1 217.68  30
    Z">
      <animateTransform
        attributeName="transform"
        attributeType="XML"
        type="rotate"
        from="360 250 250"
        to="0 250 250"
        begin="-15s"
        dur="30s"
        repeatCount="indefinite"
      />
      <animate
        attributeName="fill"
        values="#ff9393;#ab93ff;#93d3ff;#93ff93;#fffb93;#ff9393;"
        begin="-15s"
        dur="30s"
        repeatCount="indefinite"
      />
    </path>
    <path d="
    M             217.68  30
    L             282.32  30
    A 14 14 0 0 1 294.44  37
    L             326.76  93
    A 14 14 0 0 1 326.76 107
    L             294.44 163
    A 14 14 0 0 1 282.32 170
    L             217.68 170
    A 14 14 0 0 1 205.56 163
    L             173.24 107
    A 14 14 0 0 1 173.24  93
    L             205.56  37
    A 14 14 0 0 1 217.68  30
    Z">
      <animateTransform
        attributeName="transform"
        attributeType="XML"
        type="rotate"
        from="360 250 250"
        to="0 250 250"
        begin="-10s"
        dur="30s"
        repeatCount="indefinite"
      />
      <animate
        attributeName="fill"
        values="#ff9393;#ab93ff;#93d3ff;#93ff93;#fffb93;#ff9393;"
        begin="-10s"
        dur="30s"
        repeatCount="indefinite"
      />
    </path>
    <path d="
    M             217.68  30
    L             282.32  30
    A 14 14 0 0 1 294.44  37
    L             326.76  93
    A 14 14 0 0 1 326.76 107
    L             294.44 163
    A 14 14 0 0 1 282.32 170
    L             217.68 170
    A 14 14 0 0 1 205.56 163
    L             173.24 107
    A 14 14 0 0 1 173.24  93
    L             205.56  37
    A 14 14 0 0 1 217.68  30
    Z">
      <animateTransform
        attributeName="transform"
        attributeType="XML"
        type="rotate"
        from="360 250 250"
        to="0 250 250"
        begin="-5s"
        dur="30s"
        repeatCount="indefinite"
      />
      <animate
        attributeName="fill"
        values="#ff9393;#ab93ff;#93d3ff;#93ff93;#fffb93;#ff9393;"
        begin="-5s"
        dur="30s"
        repeatCount="indefinite"
      />
    </path>
  </g>
</svg>