<svg xmlns="http://www.w3.org/2000/svg"
width="500" height="500">
  <g>
    <path d="
    M             217.68  30
    L             282.32  30
    A 14 14 0 0 1 294.44  37
    L             326.76  93
    A 14 14 0 0 1 326.76 107
    L             294.44 163
    A 14 14 0 0 1 282.32 170
    L             217.68 170
    A 14 14 0 0 1 205.56 163
    L             173.24 107
    A 14 14 0 0 1 173.24  93
    L             205.56  37
    A 14 14 0 0 1 217.68  30
    Z">
      <animateTransform
        attributeName="transform"
        attributeType="XML"
        type="rotate"
        from="360 250 250"
        to="300 250 250"
        dur="5s"
        repeatCount="indefinite"
      />
      <animate
        attributeName="fill"
        values="#ff9393;#ab93ff"
        dur="5s"
        repeatCount="indefinite"
      />
    </path>
    <path d="
    M             217.68  30
    L             282.32  30
    A 14 14 0 0 1 294.44  37
    L             326.76  93
    A 14 14 0 0 1 326.76 107
    L             294.44 163
    A 14 14 0 0 1 282.32 170
    L             217.68 170
    A 14 14 0 0 1 205.56 163
    L             173.24 107
    A 14 14 0 0 1 173.24  93
    L             205.56  37
    A 14 14 0 0 1 217.68  30
    Z">
      <animateTransform
        attributeName="transform"
        attributeType="XML"
        type="rotate"
        from="300 250 250"
        to="240 250 250"
        dur="5s"
        repeatCount="indefinite"
      />
      <animate
        attributeName="fill"
        values="#ab93ff;#93d3ff"
        dur="5s"
        repeatCount="indefinite"
      />
    </path>
    <path d="
    M             217.68  30
    L             282.32  30
    A 14 14 0 0 1 294.44  37
    L             326.76  93
    A 14 14 0 0 1 326.76 107
    L             294.44 163
    A 14 14 0 0 1 282.32 170
    L             217.68 170
    A 14 14 0 0 1 205.56 163
    L             173.24 107
    A 14 14 0 0 1 173.24  93
    L             205.56  37
    A 14 14 0 0 1 217.68  30
    Z">
      <animateTransform
        attributeName="transform"
        attributeType="XML"
        type="rotate"
        from="240 250 250"
        to="180 250 250"
        dur="5s"
        repeatCount="indefinite"
      />
      <animate
        attributeName="fill"
        values="#93d3ff;#93ff93"
        dur="5s"
        repeatCount="indefinite"
      />
    </path>
    <path d="
    M             217.68  30
    L             282.32  30
    A 14 14 0 0 1 294.44  37
    L             326.76  93
    A 14 14 0 0 1 326.76 107
    L             294.44 163
    A 14 14 0 0 1 282.32 170
    L             217.68 170
    A 14 14 0 0 1 205.56 163
    L             173.24 107
    A 14 14 0 0 1 173.24  93
    L             205.56  37
    A 14 14 0 0 1 217.68  30
    Z">
      <animateTransform
        attributeName="transform"
        attributeType="XML"
        type="rotate"
        from="180 250 250"
        to="120 250 250"
        dur="5s"
        repeatCount="indefinite"
      />
      <animate
        attributeName="fill"
        values="#93ff93;#fffb93"
        dur="5s"
        repeatCount="indefinite"
      />
    </path>
    <path d="
    M             217.68  30
    L             282.32  30
    A 14 14 0 0 1 294.44  37
    L             326.76  93
    A 14 14 0 0 1 326.76 107
    L             294.44 163
    A 14 14 0 0 1 282.32 170
    L             217.68 170
    A 14 14 0 0 1 205.56 163
    L             173.24 107
    A 14 14 0 0 1 173.24  93
    L             205.56  37
    A 14 14 0 0 1 217.68  30
    Z">
      <animateTransform
        attributeName="transform"
        attributeType="XML"
        type="rotate"
        from="120 250 250"
        to="60 250 250"
        dur="5s"
        repeatCount="indefinite"
      />
      <animate
        attributeName="fill"
        values="#fffb93;#ffc493"
        dur="5s"
        repeatCount="indefinite"
      />
    </path>
    <path d="
    M             217.68  30
    L             282.32  30
    A 14 14 0 0 1 294.44  37
    L             326.76  93
    A 14 14 0 0 1 326.76 107
    L             294.44 163
    A 14 14 0 0 1 282.32 170
    L             217.68 170
    A 14 14 0 0 1 205.56 163
    L             173.24 107
    A 14 14 0 0 1 173.24  93
    L             205.56  37
    A 14 14 0 0 1 217.68  30
    Z">
      <animateTransform
        attributeName="transform"
        attributeType="XML"
        type="rotate"
        from="60 250 250"
        to="0 250 250"
        dur="5s"
        repeatCount="indefinite"
      />
      <animate
        attributeName="fill"
        values="#ffc493;#ff9393"
        dur="5s"
        repeatCount="indefinite"
      />
    </path>
  </g>
</svg>